# xmcd CD database file
#
# Track frame offsets:
#	150
#	24268
#	52636
#	74865
#	96887
#	122068
#	148186
#	172599
#	191274
#	212620
#
# Disc length: 3061 seconds
#
# Revision: 0
# Processed by: cddbd v1.5.2PL0 Copyright (c) Steve Scherf et al.
# Submitted via: jetAudio 7
#
DISCID=820bf30a
DTITLE=王俊雄  - 諦聽中國系列之一西方蓮
DYEAR=1900
DGENRE=장르 없음
TTITLE0=西方莲
TTITLE1=觀音靈感歌
TTITLE2=觀音贊
TTITLE3=三寳頌
TTITLE4=贊三寳
TTITLE5=贊僧歌
TTITLE6=地藏菩薩禮贊
TTITLE7=甘露
TTITLE8=曉霧
TTITLE9=大夢
EXTD=
EXTT0=
EXTT1=
EXTT2=
EXTT3=
EXTT4=
EXTT5=
EXTT6=
EXTT7=
EXTT8=
EXTT9=
PLAYORDER=
